<svg xmlns="http://www.w3.org/2000/svg" xmlns:xlink="http://www.w3.org/1999/xlink" width="400" height="400" viewBox="0 0 400 400"><defs><clipPath id="b"><rect width="400" height="400"/></clipPath></defs><g id="a" clip-path="url(#b)"><g transform="translate(0 -0.125)"><path d="M200,343.751,0,0H153.75L200,79.376,246.25,0H400L288.572,191.516l-34.887-20.191a7.886,7.886,0,0,0-4-1.088,8.021,8.021,0,0,0-8.013,8.012v93.868L200,343.751Z" transform="translate(0 28.125)" fill="#42b883"/><path d="M191.85,10,145.6,89.375,99.35,10H25.6l120,206.25L265.6,10Z" transform="translate(54.4 18.125)" fill="#35495e"/><path d="M76.865,7.435a5,5,0,0,1,8.645,0l72.5,124.7a5,5,0,0,1-4.323,7.513H8.691a5,5,0,0,1-4.323-7.513Z" transform="translate(387.322 202) rotate(90)" fill="#35495e"/></g></g></svg>
